<?xml version="1.0" encoding="UTF-8"?>
<svg width="481px" height="481px" viewBox="0 0 481 481" version="1.1" xmlns="http://www.w3.org/2000/svg" xmlns:xlink="http://www.w3.org/1999/xlink">
    <!-- Generator: Sketch 52.6 (67491) - http://www.bohemiancoding.com/sketch -->
    <title>backpack</title>
    <desc>Created with Sketch.</desc>
    <g id="Page-1" stroke="none" stroke-width="1" fill="none" fill-rule="evenodd">
        <g id="backpack" transform="translate(0.265625, 0.934819)" fill="#D2D2D2">
            <path d="M376,304 L112,304 C107.582,304 104,307.582 104,312 L104,424 C104,428.418 107.582,432 112,432 L376,432 C380.418,432 384,428.418 384,424 L384,312 C384,307.582 380.418,304 376,304 Z M368,416 L120,416 L120,360 L312,360 L312,376 C312,380.418 315.582,384 320,384 C324.418,384 328,380.418 328,376 L328,360 L344,360 C348.418,360 352,356.418 352,352 C352,347.582 348.418,344 344,344 L120,344 L120,320 L368,320 L368,416 Z" id="Shape" fill-rule="nonzero"></path>
            <rect id="Rectangle" x="136" y="232" width="16" height="16"></rect>
            <rect id="Rectangle" x="328" y="232" width="16" height="16"></rect>
            <path d="M472,208 L440,208 L440,104 C439.909,75.793 428.359,48.835 408,29.312 L408,8 C408,3.582 404.418,0 400,0 L80,0 C75.582,0 72,3.582 72,8 L72,29.312 C51.641,48.835 40.091,75.793 40,104 L40,208 L8,208 C3.582,208 0,211.582 0,216 L0,376 C0,380.418 3.582,384 8,384 L40.408,384 C44.618,438.119 89.717,479.913 144,480 L336,480 C390.283,479.913 435.382,438.119 439.592,384 L472,384 C476.418,384 480,380.418 480,376 L480,216 C480,211.582 476.418,208 472,208 Z M40,368 L16,368 L16,256 L40,256 L40,368 Z M40,240 L16,240 L16,224 L40,224 L40,240 Z M88,16 L392,16 L392,172 L376,184 L376,112 C376,107.582 372.418,104 368,104 L304,104 C299.582,104 296,107.582 296,112 L296,226.528 C260.311,242.2 219.689,242.2 184,226.528 L184,112 C184,107.582 180.418,104 176,104 L112,104 C107.582,104 104,107.582 104,112 L104,184 L88,172 L88,16 Z M312,152 L312,120 L360,120 L360,152 L312,152 Z M360,168 L360,252 L336,270 L312,252 L312,168 L360,168 Z M120,152 L120,120 L168,120 L168,152 L120,152 Z M168,168 L168,252 L144,270 L120,252 L120,168 L168,168 Z M424,376 C423.943,424.577 384.577,463.943 336,464 L144,464 C95.423,463.943 56.057,424.577 56,376 L56,104 C56.048,86.003 61.634,68.456 72,53.744 L72,176 C72,178.518 73.186,180.889 75.2,182.4 L104,204 L104,256 C104,258.518 105.186,260.889 107.2,262.4 L139.2,286.4 C142.044,288.533 145.956,288.533 148.8,286.4 L180.8,262.4 C182.814,260.889 184,258.518 184,256 L184,243.808 C220.004,257.899 259.996,257.899 296,243.808 L296,256 C296,258.518 297.186,260.889 299.2,262.4 L331.2,286.4 C334.044,288.533 337.956,288.533 340.8,286.4 L372.8,262.4 C374.814,260.889 376,258.518 376,256 L376,204 L404.8,182.4 C406.814,180.889 408,178.518 408,176 L408,53.744 C418.366,68.456 423.952,86.003 424,104 L424,376 Z M464,368 L440,368 L440,256 L464,256 L464,368 Z M464,240 L440,240 L440,224 L464,224 L464,240 Z" id="Shape" fill-rule="nonzero"></path>
        </g>
    </g>
</svg>