<?xml version="1.0" encoding="UTF-8"?>
<svg width="497px" height="497px" viewBox="0 0 497 497" version="1.1" xmlns="http://www.w3.org/2000/svg" xmlns:xlink="http://www.w3.org/1999/xlink">
    <!-- Generator: Sketch 52.6 (67491) - http://www.bohemiancoding.com/sketch -->
    <title>beach</title>
    <desc>Created with Sketch.</desc>
    <g id="Page-1" stroke="none" stroke-width="1" fill="none" fill-rule="evenodd">
        <g id="beach" transform="translate(-0.500000, -0.065181)" fill="#D2D2D2">
            <path d="M495.912,484.968 L446.928,401 L473,401 C486.232,401 497,390.232 497,377 C497,366.584 490.288,357.784 481,354.472 L481,337 C481,323.768 470.232,313 457,313 L369,313 L369,249 C382.232,249 393,238.232 393,225 C393,211.768 382.232,201 369,201 L369,158.856 C372.184,158.296 375.352,157.656 378.496,156.872 L379.416,156.64 C398.768,151.808 419.264,151.816 438.56,156.632 L439.544,156.88 C450.48,159.616 461.736,161 473,161 L489,161 C493.416,161 497,157.416 497,153 C497,69.184 428.816,1 345,1 C261.184,1 193,69.184 193,153 C193,157.416 196.584,161 201,161 L217,161 C228.264,161 239.52,159.616 250.496,156.872 L251.416,156.64 C270.768,151.808 291.264,151.816 310.56,156.632 L311.544,156.88 C314.672,157.664 317.832,158.296 321.008,158.856 L321.008,201 C307.776,201 297.008,211.768 297.008,225 C297.008,238.232 307.776,249 321.008,249 L321.008,313 L203.12,313 C194.736,313 186.856,308.536 182.544,301.344 L131.256,215.864 C127.192,209.088 120.408,204.328 112.648,202.808 C104.888,201.288 96.816,203.144 90.488,207.88 C79.08,216.432 75.936,232.152 83.16,244.44 L147.016,353 L133.528,353 L71.592,249.776 C68.424,244.488 63.36,240.832 57.352,239.472 C51.336,238.128 45.192,239.256 40.064,242.68 C30.016,249.376 27.104,262.68 33.432,272.96 L48.136,296.848 L19.752,353.624 C9.04,356.032 1,365.576 1,377 C1,390.232 11.768,401 25,401 L51.072,401 L2.088,484.968 C0.64,487.448 0.632,490.496 2.064,492.984 C3.496,495.472 6.136,497 9,497 L49,497 C51.84,497 54.48,495.488 55.912,493.032 L109.592,401 L321,401 L321,433.328 C306.944,434.6 293.304,439.768 282,448.248 L276.76,452.176 C267.536,459.096 253.4,458.08 245.256,449.944 L241.424,446.112 C227.808,432.496 209.712,425 190.464,425 C169.4,425 149.464,434.168 135.752,450.168 L106.928,483.8 C104.896,486.168 104.432,489.512 105.736,492.352 C107.04,495.176 109.872,497 113,497 L409,497 C412.344,497 415.336,494.912 416.504,491.776 C417.664,488.632 416.752,485.104 414.208,482.928 L377.376,451.36 C374.728,449.088 371.904,447.08 369,445.216 L369,401 L388.408,401 L442.096,493.032 C443.52,495.488 446.16,497 449,497 L489,497 C491.864,497 494.512,495.472 495.936,492.984 C497.36,490.496 497.352,487.448 495.912,484.968 Z M480.768,145 L473,145 C463.04,145 453.088,143.776 443.448,141.368 L442.464,141.12 C433.664,138.92 424.648,137.64 415.6,137.208 L414.344,130.912 C406.352,90.936 391.304,53.48 369.584,19.304 C430.312,30.448 477.096,82 480.768,145 Z M247.504,141.128 L246.584,141.36 C236.912,143.776 226.96,145 217,145 L209.232,145 C212.904,82 259.688,30.448 320.416,19.304 C298.688,53.472 283.648,90.936 275.656,130.912 L274.392,137.224 C265.352,137.648 256.336,138.92 247.504,141.128 Z M314.464,141.12 C306.656,139.176 298.696,137.952 290.68,137.392 L291.344,134.056 C299.792,91.8 316.584,52.528 341.112,17.192 C342.416,17.152 343.688,17 345,17 C346.312,17 347.584,17.152 348.88,17.192 C373.416,52.528 390.2,91.8 398.648,134.056 L399.312,137.376 C391.296,137.944 383.328,139.176 375.504,141.128 L374.584,141.36 C355.232,146.192 334.736,146.184 315.44,141.368 L314.464,141.12 Z M337,160.736 C342.328,161.04 347.672,161.04 353,160.736 L353,201 L337,201 L337,160.736 Z M313,225 C313,220.592 316.592,217 321,217 L369,217 C373.408,217 377,220.592 377,225 C377,229.408 373.408,233 369,233 L321,233 C316.592,233 313,229.408 313,225 Z M337,249 L353,249 L353,313 L337,313 L337,249 Z M96.952,236.336 C93.856,231.072 95.208,224.344 100.088,220.68 C102.832,218.624 106.176,217.832 109.576,218.512 C112.944,219.176 115.776,221.16 117.544,224.104 L168.832,309.584 C176,321.56 189.152,329 203.12,329 L457,329 C461.408,329 465,332.592 465,337 L465,353 L165.576,353 L96.952,236.336 Z M48.936,255.992 C50.392,255.016 52.144,254.696 53.832,255.08 C55.536,255.464 56.976,256.504 57.872,258 L114.872,353 L101.472,353 L47.056,264.568 C45.264,261.664 46.088,257.888 48.936,255.992 Z M82.688,353 L37.944,353 L58,312.888 L82.688,353 Z M17,377 C17,372.592 20.592,369 25,369 L473,369 C477.408,369 481,372.592 481,377 C481,381.408 477.408,385 473,385 L25,385 C20.592,385 17,381.408 17,377 Z M44.408,481 L22.928,481 L69.592,401 L91.072,401 L44.408,481 Z M387.376,481 L130.392,481 L147.896,460.576 C158.56,448.136 174.08,441 190.464,441 C205.44,441 219.512,446.832 230.104,457.416 L233.936,461.248 C241.512,468.832 251.584,473 262.296,473 C270.92,473 279.464,470.152 286.36,464.984 L291.6,461.056 C301.96,453.28 314.8,449 327.752,449 C342.128,449 356.056,454.152 366.968,463.504 L387.376,481 Z M353,437.352 C347.832,435.536 342.472,434.304 337,433.632 L337,401 L353,401 L353,437.352 Z M453.592,481 L406.928,401 L428.408,401 L475.072,481 L453.592,481 Z" id="Shape" fill-rule="nonzero"></path>
            <path d="M97,153 C127.88,153 153,127.88 153,97 C153,66.12 127.88,41 97,41 C66.12,41 41,66.12 41,97 C41,127.88 66.12,153 97,153 Z M97,57 C119.056,57 137,74.944 137,97 C137,119.056 119.056,137 97,137 C74.944,137 57,119.056 57,97 C57,74.944 74.944,57 97,57 Z" id="Shape" fill-rule="nonzero"></path>
            <path d="M25,124.312 L25,153 C25,156.816 27.688,160.096 31.432,160.84 L69.056,168.368 L91.344,190.656 C92.904,192.216 94.952,193 97,193 C99.048,193 101.096,192.216 102.656,190.656 L124.944,168.368 L162.568,160.84 C166.312,160.096 169,156.816 169,153 L169,124.312 L190.656,102.656 C193.784,99.528 193.784,94.472 190.656,91.344 L169,69.688 L169,41 C169,37.184 166.312,33.904 162.568,33.16 L124.944,25.632 L102.656,3.344 C99.528,0.216 94.472,0.216 91.344,3.344 L69.056,25.632 L31.432,33.16 C27.688,33.904 25,37.184 25,41 L25,69.688 L3.344,91.344 C0.216,94.472 0.216,99.528 3.344,102.656 L25,124.312 Z M38.656,78.656 C40.16,77.16 41,75.12 41,73 L41,47.56 L74.568,40.848 C76.112,40.536 77.536,39.776 78.656,38.664 L97,20.312 L115.344,38.656 C116.464,39.776 117.88,40.536 119.432,40.84 L153,47.56 L153,73 C153,75.12 153.84,77.16 155.344,78.656 L173.688,97 L155.344,115.344 C153.84,116.84 153,118.88 153,121 L153,146.44 L119.432,153.152 C117.888,153.464 116.464,154.224 115.344,155.336 L97,173.688 L78.656,155.344 C77.536,154.224 76.12,153.464 74.568,153.16 L41,146.44 L41,121 C41,118.88 40.16,116.84 38.656,115.344 L20.312,97 L38.656,78.656 Z" id="Shape" fill-rule="nonzero"></path>
            <polygon id="Path" points="177 457 193 457 193 473 177 473"></polygon>
        </g>
    </g>
</svg>