<?xml version="1.0" encoding="UTF-8"?>
<svg width="497px" height="497px" viewBox="0 0 497 497" version="1.1" xmlns="http://www.w3.org/2000/svg" xmlns:xlink="http://www.w3.org/1999/xlink">
    <!-- Generator: Sketch 52.6 (67491) - http://www.bohemiancoding.com/sketch -->
    <title>camping</title>
    <desc>Created with Sketch.</desc>
    <g id="Page-1" stroke="none" stroke-width="1" fill="none" fill-rule="evenodd">
        <g id="camping" transform="translate(0.345475, 0.934819)" fill="#D2D2D2" fill-rule="nonzero">
            <path d="M496,396.856 L477.808,377.264 C443.248,340.056 413.272,299.448 387.944,256 L448,256 L448,236.856 L429.808,217.264 C372.12,155.136 326.912,83.736 295.432,5.024 L293.416,0 L170.584,0 L168.568,5.024 C137.088,83.728 91.88,155.136 34.192,217.264 L16,236.856 L16,256 L172.04,256 C159.928,276.76 146.72,296.88 132.472,316.288 C129.808,310.488 128,304.208 128,296 L128,284.904 L117.472,288.408 C116.52,288.728 98.712,295.008 91.264,316.032 C83.592,307.608 75.176,304.624 74.536,304.408 L64,300.904 L64,312 C64,324.016 60.176,331.928 55.344,340.184 C44.76,328.328 32.896,328 32,328 L24,328 L24,336 C24,361.104 19.528,374.28 15.216,387.016 C11.504,397.96 8,408.296 8,424 C8,431.288 10.208,437.288 13.8,442.288 C10.736,443.728 7.968,445.808 5.712,448.456 C1.144,453.832 -0.816,460.944 0.32,467.968 C2.176,479.392 12.728,488 24.848,488 L46.24,488 C50.64,492.872 56.936,496 64,496 L128,496 C135.064,496 141.36,492.872 145.76,488 L167.152,488 C179.28,488 189.824,479.392 191.68,467.976 C192.824,460.944 190.856,453.832 186.288,448.464 C184.032,445.816 181.264,443.736 178.2,442.296 C181.792,437.288 184,431.288 184,424 C184,421.152 183.848,418.528 183.64,416 L496,416 L496,396.856 Z M418.088,228.16 L429.088,240 L378.96,240 C365.72,215.816 353.76,190.856 343.432,165.024 L341.416,160 L288,160 L288,28.392 C319.752,102.032 363.352,169.224 418.088,228.16 Z M45.912,228.16 C103.72,165.912 149.28,94.552 181.392,16 L259.92,16 C228.752,90.528 186.288,159.304 133.312,220.432 L116.344,240 L34.912,240 L45.912,228.16 Z M137.52,240 L145.4,230.904 C198,170.224 240.432,102.152 272,28.48 L272,160 L218.584,160 L216.568,165.024 C206.28,190.744 194.368,215.752 181.08,240 L137.52,240 Z M168,336 L168,328 L160,328 C159.28,328 151.336,328.192 142.72,334.568 C142.168,333.576 141.6,332.616 141.032,331.648 C176.984,283.728 206.728,231.44 229.392,176 L234.704,176 C266.736,254.496 311.04,326.8 366.6,390.904 L374.48,400 L331.848,400 L288.224,345.472 C257.128,306.6 240,257.784 240,208 L224,208 C224,257.784 206.872,306.6 175.776,345.472 L168.928,354.032 C168.352,348.736 168,342.84 168,336 Z M30.368,392.152 C34.224,380.768 38.536,368.088 39.696,347.312 C46.76,352.504 56,365.824 56,400 L72,400 C72,380.32 69.016,366.16 64.736,355.768 C65.448,354.552 66.144,353.328 66.856,352.12 C71.304,344.72 76.168,336.6 78.536,325.816 C83.232,330.64 88,338.784 88,352 L88,360 L104,360 L104,336 C104,322.824 108.768,314.672 113.472,309.84 C115.84,320.608 120.704,328.712 125.144,336.112 C127.44,339.936 129.512,343.664 131.32,347.552 C124.936,358.192 120,374.544 120,400 L136,400 C136,365.752 145.28,352.44 152.304,347.272 C153.472,368.072 157.776,380.76 161.632,392.152 C165.048,402.232 168,410.936 168,424 C168,443.48 134.744,447.152 123.64,447.832 C126.336,443.144 128,437.784 128,432 C128,425.128 125.728,418.312 121.6,412.8 L96,378.664 L70.392,412.8 C66.272,418.312 64,425.128 64,432 C64,437.792 65.664,443.152 68.368,447.84 C62.2,447.472 49.264,446.192 38.896,441.768 L38.912,441.704 C38.832,441.688 38.76,441.68 38.68,441.664 C30.488,438.128 24,432.616 24,424 C24,410.936 26.952,402.232 30.368,392.152 Z M80,432 C80,428.56 81.136,425.152 83.192,422.4 L96,405.336 L108.8,422.4 C110.864,425.152 112,428.56 112,432 C112,440.824 104.824,448 96,448 C87.176,448 80,440.824 80,432 Z M24.848,472 C20.552,472 16.712,469.104 16.112,465.4 C15.712,462.976 16.344,460.64 17.896,458.824 C19.424,457.024 21.648,456 24,456 C27.376,456 30.752,456.4 34.064,457.08 C37.032,458.288 40.104,459.32 43.232,460.184 C41.232,463.688 40,467.68 40,472 L24.848,472 Z M128,480 L64,480 C59.584,480 56,476.408 56,472 C56,467.592 59.584,464 64,464 L72,464 L120,464 L128,464 C132.416,464 136,467.592 136,472 C136,476.408 132.416,480 128,480 Z M167.152,472 L152,472 C152,467.68 150.768,463.688 148.76,460.184 C151.936,459.312 155.056,458.264 158.064,457.032 C161.328,456.368 164.664,456 168,456 C170.352,456 172.576,457.024 174.104,458.824 C175.648,460.64 176.28,462.976 175.888,465.4 C175.28,469.104 171.448,472 167.152,472 Z M176.784,387.016 C175.448,383.08 174.12,379.056 172.896,374.696 L188.28,355.464 C208.816,329.792 223.624,300.048 232.008,268.536 C240.392,300.056 255.2,329.792 275.736,355.464 L311.352,400 L180.848,400 C179.656,395.528 178.24,391.312 176.784,387.016 Z M395.656,400 L378.696,380.432 C325.72,319.304 283.248,250.528 252.088,176 L330.616,176 C362.728,254.552 408.288,325.912 466.096,388.16 L477.088,400 L395.656,400 Z" id="Shape"></path>
        </g>
    </g>
</svg>