<?xml version="1.0" encoding="UTF-8"?>
<svg width="513px" height="492px" viewBox="0 0 513 492" version="1.1" xmlns="http://www.w3.org/2000/svg" xmlns:xlink="http://www.w3.org/1999/xlink">
    <!-- Generator: Sketch 52.6 (67491) - http://www.bohemiancoding.com/sketch -->
    <title>mountain</title>
    <desc>Created with Sketch.</desc>
    <g id="Page-1" stroke="none" stroke-width="1" fill="none" fill-rule="evenodd">
        <g id="mountain" transform="translate(0.234375, 0.359375)" fill="#D2D2D2">
            <path d="M502,251.8125 L476.777344,251.8125 C473.695312,251.8125 470.785156,253.234375 468.890625,255.664062 L453.679688,275.167969 C450.28125,279.523438 451.058594,285.804688 455.414062,289.203125 C457.242188,290.628906 459.40625,291.316406 461.558594,291.316406 C464.535156,291.316406 467.476562,289.996094 469.449219,287.46875 L481.660156,271.816406 L502,271.816406 C507.523438,271.816406 512,267.339844 512,261.816406 C512,256.292969 507.523438,251.8125 502,251.8125 Z" id="Path"></path>
            <path d="M420.53125,333.921875 C416.175781,330.527344 409.894531,331.300781 406.496094,335.65625 L392.433594,353.6875 L348.652344,353.6875 L313.683594,233.875 C323.878906,229.996094 331.140625,220.125 331.140625,208.585938 C331.140625,193.671875 319.007812,181.535156 304.089844,181.535156 L298.40625,181.535156 L291.160156,156.703125 C289.609375,151.402344 284.054688,148.359375 278.757812,149.90625 C273.457031,151.453125 270.414062,157.003906 271.960938,162.304688 L277.574219,181.535156 L272.242188,181.535156 L235.089844,146.078125 C235.878906,145.582031 236.664062,145.070312 237.429688,144.527344 C248.003906,137.042969 255.027344,125.890625 257.207031,113.121094 C259.390625,100.355469 256.46875,87.503906 248.984375,76.933594 C241.5,66.359375 230.347656,59.339844 217.578125,57.15625 C191.222656,52.648438 166.117188,70.429688 161.613281,96.785156 C158.894531,112.683594 164.296875,128.125 174.792969,138.867188 C172.007812,140.175781 169.390625,141.699219 166.957031,143.417969 C162.269531,133.621094 153.203125,126.144531 141.902344,124.117188 C132.917969,122.507812 123.851562,124.523438 116.367188,129.800781 C108.71875,135.195312 103.644531,143.3125 102.089844,152.65625 C101.089844,158.652344 101.664062,164.566406 103.507812,169.957031 C103.019531,170.191406 102.546875,170.453125 102.101562,170.765625 C99.921875,172.289062 98.4375,174.621094 97.980469,177.246094 L83.929688,257.917969 C81.402344,272.449219 90.757812,286.320312 104.785156,288.832031 L121.625,291.851562 C123.144531,292.125 124.652344,292.257812 126.144531,292.257812 C127.265625,292.257812 128.367188,292.160156 129.457031,292.015625 L126.339844,339.875 L102.070312,389.933594 C99.769531,394.6875 98.601562,399.769531 98.601562,405.03125 C98.601562,410.160156 99.773438,415.140625 101.882812,419.65625 L90.273438,419.65625 C88.367188,419.65625 86.5,420.203125 84.894531,421.226562 L4.625,472.414062 C-0.03125,475.382812 -1.398438,481.566406 1.570312,486.222656 C3.476562,489.210938 6.710938,490.847656 10.011719,490.847656 C11.851562,490.847656 13.710938,490.339844 15.378906,489.277344 L93.1875,439.65625 L131.265625,439.65625 C131.917969,439.695312 132.566406,439.714844 133.214844,439.714844 C133.753906,439.714844 134.289062,439.683594 134.824219,439.65625 L241.449219,439.65625 C244.011719,439.65625 246.476562,438.671875 248.335938,436.90625 L314.871094,373.691406 L341.089844,373.691406 L341.148438,373.691406 L341.183594,373.691406 L397.316406,373.691406 C400.394531,373.691406 403.304688,372.269531 405.199219,369.839844 L422.265625,347.960938 C425.664062,343.601562 424.886719,337.320312 420.53125,333.921875 Z M170.347656,297.136719 C166.476562,296.472656 162.191406,296.1875 158.671875,294.335938 C152.449219,291.058594 149.292969,284.113281 150.445312,277.273438 C150.765625,275.378906 151.09375,273.480469 151.417969,271.585938 C180.425781,270.238281 200.664062,262.082031 214.222656,253.378906 L211.878906,267.097656 C211.128906,271.492188 213.378906,275.855469 217.394531,277.792969 L252.992188,294.945312 L294.355469,347.160156 C299.378906,353.503906 298.308594,362.75 291.964844,367.773438 C285.625,372.796875 276.378906,371.722656 271.355469,365.382812 L235.605469,320.257812 C234.667969,319.070312 233.46875,318.113281 232.109375,317.457031 L201.980469,302.9375 C201.136719,302.53125 200.242188,302.246094 199.324219,302.089844 L170.347656,297.136719 Z M310.03125,334.742188 L267.234375,280.714844 C266.53125,279.832031 265.691406,279.082031 264.753906,278.488281 C264.425781,278.28125 264.078125,278.085938 263.71875,277.914062 L232.863281,263.042969 L237.546875,235.636719 L293.363281,235.636719 L327.816406,353.6875 L317.417969,353.6875 C316.929688,347 314.503906,340.382812 310.03125,334.742188 Z M268.238281,201.535156 L290.84375,201.535156 C290.863281,201.535156 290.882812,201.539062 290.902344,201.539062 C290.914062,201.539062 290.925781,201.535156 290.9375,201.535156 L304.089844,201.535156 C307.980469,201.535156 311.140625,204.699219 311.140625,208.585938 C311.140625,212.472656 307.980469,215.636719 304.089844,215.636719 L301.050781,215.636719 C301.039062,215.636719 301.027344,215.636719 301.019531,215.636719 L232.824219,215.636719 L212.605469,198.210938 C208.417969,194.609375 202.105469,195.078125 198.5,199.261719 C194.894531,203.445312 195.363281,209.757812 199.546875,213.363281 L215.363281,226.992188 C207.449219,235.210938 189.390625,248.75 154.878906,251.34375 L158.554688,229.839844 L165.5,189.222656 C165.503906,189.195312 165.503906,189.167969 165.507812,189.140625 L167.566406,177.09375 C169.5625,165.425781 179.515625,153.171875 201.425781,153.171875 C201.929688,153.171875 202.4375,153.179688 202.957031,153.191406 C203.039062,153.195312 203.125,153.195312 203.207031,153.195312 C210.066406,153.195312 216.230469,155.5625 220.554688,159.855469 C220.683594,159.984375 220.816406,160.109375 220.949219,160.230469 L261.332031,198.769531 C263.195312,200.546875 265.667969,201.535156 268.238281,201.535156 Z M181.328125,100.152344 C183.699219,86.285156 195.773438,76.460938 209.394531,76.460938 C210.984375,76.460938 212.59375,76.59375 214.210938,76.871094 C221.710938,78.152344 228.261719,82.277344 232.660156,88.488281 C237.058594,94.699219 238.777344,102.253906 237.492188,109.753906 C235.125,123.621094 223.046875,133.449219 209.425781,133.445312 C207.835938,133.445312 206.226562,133.3125 204.609375,133.035156 C189.125,130.390625 178.679688,115.636719 181.328125,100.152344 Z M121.816406,155.945312 C122.488281,151.914062 124.644531,148.433594 127.890625,146.144531 C130.28125,144.460938 133.058594,143.582031 135.902344,143.582031 C136.722656,143.582031 137.546875,143.65625 138.371094,143.804688 C146.285156,145.222656 151.605469,153.070312 150.234375,161.292969 C149.5625,165.324219 147.402344,168.804688 144.15625,171.09375 C141.078125,173.265625 137.359375,174.09375 133.679688,173.4375 C125.765625,172.015625 120.441406,164.167969 121.816406,155.945312 Z M125.15625,272.167969 L108.316406,269.144531 C105.085938,268.566406 102.984375,265.066406 103.632812,261.34375 L115.957031,190.578125 L144.109375,195.628906 L139.363281,223.402344 L131.800781,267.621094 C130.808594,270.691406 127.957031,272.667969 125.15625,272.167969 Z M126.871094,418.25 C121.769531,415.777344 118.601562,410.710938 118.601562,405.027344 C118.601562,402.808594 119.097656,400.660156 120.070312,398.652344 L145.1875,346.839844 C145.753906,345.679688 146.085938,344.417969 146.167969,343.128906 L148.234375,311.4375 C155.773438,315.757812 164.761719,316.46875 173.191406,317.914062 C174.777344,318.183594 176.363281,318.457031 177.949219,318.726562 L175.699219,351.15625 L146.472656,411.449219 C144.117188,416.304688 139.414062,419.265625 134.382812,419.65625 L132.113281,419.65625 C130.339844,419.515625 128.566406,419.070312 126.871094,418.25 Z M237.453125,419.65625 L164.71875,419.65625 L194.539062,358.140625 C194.746094,357.714844 194.917969,357.28125 195.0625,356.835938 C195.304688,356.082031 195.460938,355.285156 195.519531,354.460938 L197.695312,323.074219 L221.355469,334.476562 L255.679688,377.800781 C259.625,382.78125 264.675781,386.378906 270.207031,388.535156 L237.453125,419.65625 Z" id="Shape" fill-rule="nonzero"></path>
            <path d="M388.351562,129.78125 L439.515625,129.78125 C460.6875,129.78125 477.914062,112.554688 477.914062,91.378906 C477.914062,70.207031 460.6875,52.980469 439.515625,52.980469 C434.402344,52.980469 429.371094,54.003906 424.710938,55.949219 C416.15625,44.824219 402.800781,38.046875 388.351562,38.046875 C363.058594,38.046875 342.484375,58.621094 342.484375,83.914062 C342.484375,96.164062 347.253906,107.683594 355.917969,116.347656 C364.582031,125.011719 376.097656,129.78125 388.351562,129.78125 Z M388.351562,58.046875 C398.65625,58.046875 407.972656,64.15625 412.085938,73.617188 C413.34375,76.511719 415.894531,78.644531 418.96875,79.367188 C422.039062,80.085938 425.273438,79.316406 427.691406,77.285156 C431.042969,74.46875 435.128906,72.980469 439.515625,72.980469 C449.660156,72.980469 457.914062,81.234375 457.914062,91.378906 C457.914062,101.527344 449.660156,109.78125 439.515625,109.78125 L388.351562,109.78125 C381.441406,109.78125 374.945312,107.089844 370.058594,102.203125 C365.171875,97.320312 362.484375,90.824219 362.484375,83.914062 C362.484375,69.648438 374.089844,58.046875 388.351562,58.046875 Z" id="Shape" fill-rule="nonzero"></path>
            <path d="M60.460938,104.5625 C80.597656,104.5625 96.980469,88.179688 96.980469,68.042969 C96.980469,47.90625 80.597656,31.523438 60.460938,31.523438 C50.707031,31.523438 41.535156,35.320312 34.640625,42.21875 C27.742188,49.117188 23.941406,58.289062 23.941406,68.042969 C23.941406,88.179688 40.328125,104.5625 60.460938,104.5625 Z M48.78125,56.363281 C51.902344,53.242188 56.050781,51.523438 60.460938,51.523438 C69.570312,51.523438 76.980469,58.933594 76.980469,68.042969 C76.980469,77.152344 69.570312,84.5625 60.460938,84.5625 C51.355469,84.5625 43.941406,77.152344 43.941406,68.042969 C43.941406,63.628906 45.660156,59.480469 48.78125,56.363281 Z" id="Shape" fill-rule="nonzero"></path>
            <path d="M5,47.792969 L9.691406,50.5 C11.265625,51.410156 12.988281,51.84375 14.683594,51.84375 C18.140625,51.84375 21.5,50.050781 23.351562,46.839844 C26.113281,42.058594 24.476562,35.941406 19.691406,33.179688 L15,30.472656 C10.21875,27.710938 4.101562,29.347656 1.339844,34.132812 C-1.417969,38.914062 0.21875,45.03125 5,47.792969 Z" id="Path"></path>
            <path d="M115.921875,88.738281 L111.230469,86.03125 C106.449219,83.269531 100.332031,84.90625 97.570312,89.691406 C94.808594,94.472656 96.449219,100.589844 101.230469,103.351562 L105.921875,106.058594 C107.496094,106.96875 109.214844,107.402344 110.914062,107.402344 C114.367188,107.402344 117.730469,105.609375 119.582031,102.398438 C122.34375,97.617188 120.703125,91.5 115.921875,88.738281 Z" id="Path"></path>
            <path d="M10.011719,107.402344 C11.707031,107.402344 13.429688,106.96875 15.003906,106.058594 L19.691406,103.351562 C24.476562,100.589844 26.113281,94.476562 23.351562,89.691406 C20.589844,84.90625 14.476562,83.269531 9.691406,86.03125 L5,88.738281 C0.21875,91.5 -1.417969,97.617188 1.339844,102.398438 C3.195312,105.609375 6.554688,107.402344 10.011719,107.402344 Z" id="Path"></path>
            <path d="M106.242188,51.84375 C107.9375,51.84375 109.65625,51.410156 111.230469,50.503906 L115.921875,47.792969 C120.707031,45.03125 122.34375,38.917969 119.582031,34.132812 C116.820312,29.351562 110.703125,27.710938 105.921875,30.472656 L101.230469,33.179688 C96.449219,35.941406 94.808594,42.058594 97.570312,46.84375 C99.425781,50.050781 102.785156,51.84375 106.242188,51.84375 Z" id="Path"></path>
            <path d="M60.460938,25.691406 C65.984375,25.691406 70.460938,21.214844 70.460938,15.691406 L70.460938,10 C70.460938,4.476562 65.984375,0 60.460938,0 C54.9375,0 50.460938,4.476562 50.460938,10 L50.460938,15.691406 C50.460938,21.214844 54.9375,25.691406 60.460938,25.691406 Z" id="Path"></path>
            <path d="M50.460938,121.324219 L50.460938,127.015625 C50.460938,132.539062 54.9375,137.015625 60.460938,137.015625 C65.984375,137.015625 70.460938,132.539062 70.460938,127.015625 L70.460938,121.324219 C70.460938,115.800781 65.984375,111.324219 60.460938,111.324219 C54.9375,111.324219 50.460938,115.804688 50.460938,121.324219 Z" id="Path"></path>
            <path d="M446.25,306.859375 C444.636719,302.929688 440.535156,300.40625 436.300781,300.714844 C432.144531,301.015625 428.554688,303.9375 427.40625,307.9375 C426.253906,311.949219 427.800781,316.378906 431.1875,318.8125 C434.527344,321.207031 439.144531,321.273438 442.558594,319 C446.484375,316.394531 448.0625,311.207031 446.25,306.859375 Z" id="Path"></path>
        </g>
    </g>
</svg>