<?xml version="1.0" encoding="UTF-8"?>
<svg width="497px" height="401px" viewBox="0 0 497 401" version="1.1" xmlns="http://www.w3.org/2000/svg" xmlns:xlink="http://www.w3.org/1999/xlink">
    <!-- Generator: Sketch 52.6 (67491) - http://www.bohemiancoding.com/sketch -->
    <title>van</title>
    <desc>Created with Sketch.</desc>
    <g id="Page-1" stroke="none" stroke-width="1" fill="none" fill-rule="evenodd">
        <g id="van" transform="translate(0.767350, 0.934819)" fill-rule="nonzero">
            <path d="M488,282.224 L488,136 C488,105.12 462.872,80 432,80 L416,80 L416,72 L472,72 C485.232,72 496,61.232 496,48 C496,34.768 485.232,24 472,24 L416,24 C416,10.768 405.232,0 392,0 C378.768,0 368,10.768 368,24 L320,24 C320,10.768 309.232,0 296,0 C282.768,0 272,10.768 272,24 L224,24 C224,10.768 213.232,0 200,0 C186.768,0 176,10.768 176,24 L128,24 C128,10.768 117.232,0 104,0 C90.768,0 80,10.768 80,24 L24,24 C10.768,24 0,34.768 0,48 C0,61.232 10.768,72 24,72 L80,72 L80,80 L64,80 C33.128,80 8,105.12 8,136 L8,282.224 C3.24,285 0,290.104 0,296 L0,312 C0,329.648 14.352,344 32,344 L56.72,344 C56.28,346.608 56,349.272 56,352 C56,378.472 77.528,400 104,400 C130.472,400 152,378.472 152,352 C152,349.272 151.72,346.608 151.28,344 L344.72,344 C344.28,346.608 344,349.272 344,352 C344,378.472 365.528,400 392,400 C418.472,400 440,378.472 440,352 C440,349.272 439.72,346.608 439.28,344 L464,344 C481.648,344 496,329.648 496,312 L496,296 C496,290.104 492.76,285 488,282.224 Z M472,256 L128,256 C123.584,256 120,252.416 120,248 C120,243.584 123.584,240 128,240 L472,240 L472,256 Z M472,136 L472,224 L128,224 C114.768,224 104,234.768 104,248 C104,261.232 114.768,272 128,272 L472,272 L472,280 L24,280 L24,272 L44,272 C59.44,272 72,259.44 72,244 C72,228.56 59.44,216 44,216 L24,216 L24,208 L96,208 C118.056,208 136,190.056 136,168 L136,96 L432,96 C454.056,96 472,113.944 472,136 Z M24,256 L24,232 L44,232 C50.616,232 56,237.384 56,244 C56,250.616 50.616,256 44,256 L24,256 Z M176,80 L128,80 L128,72 L176,72 L176,80 Z M272,80 L224,80 L224,72 L272,72 L272,80 Z M368,80 L320,80 L320,72 L368,72 L368,80 Z M472,40 C476.416,40 480,43.592 480,48 C480,52.408 476.416,56 472,56 L416,56 L416,40 L472,40 Z M392,16 C396.416,16 400,19.592 400,24 L400,80 L384,80 L384,24 C384,19.592 387.584,16 392,16 Z M368,40 L368,56 L320,56 L320,40 L368,40 Z M296,16 C300.416,16 304,19.592 304,24 L304,80 L288,80 L288,24 C288,19.592 291.584,16 296,16 Z M272,40 L272,56 L224,56 L224,40 L272,40 Z M200,16 C204.416,16 208,19.592 208,24 L208,80 L192,80 L192,24 C192,19.592 195.584,16 200,16 Z M176,40 L176,56 L128,56 L128,40 L176,40 Z M24,56 C19.584,56 16,52.408 16,48 C16,43.592 19.584,40 24,40 L80,40 L80,56 L24,56 Z M96,24 C96,19.592 99.584,16 104,16 C108.416,16 112,19.592 112,24 L112,80 L96,80 L96,24 Z M64,96 L120,96 L120,168 C120,181.232 109.232,192 96,192 L24,192 L24,136 C24,113.944 41.944,96 64,96 Z M104,384 C86.352,384 72,369.648 72,352 C72,334.352 86.352,320 104,320 C121.648,320 136,334.352 136,352 C136,369.648 121.648,384 104,384 Z M392,384 C374.352,384 360,369.648 360,352 C360,334.352 374.352,320 392,320 C409.648,320 424,334.352 424,352 C424,369.648 409.648,384 392,384 Z M480,312 C480,320.824 472.824,328 464,328 L433.504,328 C425.192,313.68 409.72,304 392,304 C374.28,304 358.808,313.68 350.496,328 L145.504,328 C137.192,313.68 121.72,304 104,304 C86.28,304 70.808,313.68 62.496,328 L32,328 C23.176,328 16,320.824 16,312 L16,296 L480,296 L480,312 Z" id="Shape" fill="#D2D2D2"></path>
            <path d="M168,208 L200,208 C208.824,208 216,200.824 216,192 L216,128 C216,119.176 208.824,112 200,112 L168,112 C159.176,112 152,119.176 152,128 L152,192 C152,200.824 159.176,208 168,208 Z M168,128 L200,128 L200.008,192 L168,192 L168,128 Z" id="Shape" fill="#D2D2D2"></path>
            <path d="M248,208 L280,208 C288.824,208 296,200.824 296,192 L296,128 C296,119.176 288.824,112 280,112 L248,112 C239.176,112 232,119.176 232,128 L232,192 C232,200.824 239.176,208 248,208 Z M248,128 L280,128 L280.008,192 L248,192 L248,128 Z" id="Shape" fill="#D2D2D2"></path>
            <path d="M328,208 L360,208 C368.824,208 376,200.824 376,192 L376,128 C376,119.176 368.824,112 360,112 L328,112 C319.176,112 312,119.176 312,128 L312,192 C312,200.824 319.176,208 328,208 Z M328,128 L360,128 L360.008,192 L328,192 L328,128 Z" id="Shape" fill="#D2D2D2"></path>
            <path d="M408,208 L440,208 C448.824,208 456,200.824 456,192 L456,128 C456,119.176 448.824,112 440,112 L408,112 C399.176,112 392,119.176 392,128 L392,192 C392,200.824 399.176,208 408,208 Z M408,128 L440,128 L440.008,192 L408,192 L408,128 Z" id="Shape" fill="#D2D2D2"></path>
            <path d="M104,328 C90.768,328 80,338.768 80,352 C80,365.232 90.768,376 104,376 C117.232,376 128,365.232 128,352 C128,338.768 117.232,328 104,328 Z M104,360 C99.584,360 96,356.416 96,352 C96,347.584 99.584,344 104,344 C108.416,344 112,347.584 112,352 C112,356.416 108.416,360 104,360 Z" id="Shape" fill="#E3E3E3"></path>
            <path d="M392,328 C378.768,328 368,338.768 368,352 C368,365.232 378.768,376 392,376 C405.232,376 416,365.232 416,352 C416,338.768 405.232,328 392,328 Z M392,360 C387.584,360 384,356.416 384,352 C384,347.584 387.584,344 392,344 C396.416,344 400,347.584 400,352 C400,356.416 396.416,360 392,360 Z" id="Shape" fill="#E3E3E3"></path>
        </g>
    </g>
</svg>