<?xml version="1.0" encoding="UTF-8"?>
<svg width="492px" height="512px" viewBox="0 0 492 512" version="1.1" xmlns="http://www.w3.org/2000/svg" xmlns:xlink="http://www.w3.org/1999/xlink">
    <!-- Generator: Sketch 52.6 (67491) - http://www.bohemiancoding.com/sketch -->
    <title>chatbot-icon</title>
    <desc>Created with Sketch.</desc>
    <g id="Page-1" stroke="none" stroke-width="1" fill="none" fill-rule="evenodd">
        <g id="chatbot-icon" transform="translate(-1.000000, -1.000000)" fill="#FFFFFF">
            <path d="M442.099,154.661 L424.47,154.661 L424.47,11 C424.47,7.081 422.181,3.523 418.615,1.899 C415.049,0.274 410.863,0.883 407.906,3.456 L381.423,26.496 C367.601,38.522 352.665,49.65 337.031,59.571 C277.664,97.249 209.067,117.164 138.657,117.164 L89.962,117.164 C40.902,117.164 0.987,156.84 0.987,205.608 C0.987,254.376 40.901,294.052 89.962,294.052 L113.294,294.052 L113.294,503 C113.294,508.522 117.772,513 123.294,513 L180.654,513 C200.431,513 216.522,496.91 216.522,477.133 L216.522,435.229 L231.67,435.229 C251.478,435.229 267.592,419.115 267.592,399.264 C267.592,379.456 251.478,363.342 231.67,363.342 L216.522,363.342 L216.522,302.301 C259.095,311.438 299.871,328.062 337.031,351.645 C352.666,361.568 367.601,372.697 381.423,384.72 L407.906,407.761 C409.762,409.376 412.103,410.217 414.471,410.217 C415.874,410.217 417.287,409.922 418.614,409.318 C422.18,407.694 424.469,404.136 424.469,400.217 L424.469,256.557 L442.098,256.557 C470.172,256.557 493.012,233.717 493.012,205.575 C493.013,177.5 470.173,154.661 442.099,154.661 Z M20.988,205.609 C20.988,167.869 51.929,137.165 89.963,137.165 L113.295,137.165 L113.295,274.054 L89.962,274.054 C51.929,274.053 20.988,243.349 20.988,205.609 Z M231.671,383.342 C240.45,383.342 247.593,390.485 247.593,399.307 C247.593,408.086 240.45,415.229 231.671,415.229 L216.523,415.229 L216.523,383.342 L231.671,383.342 Z M196.523,477.133 C196.523,485.882 189.405,493 180.655,493 L133.295,493 L133.295,294.053 L138.658,294.053 C158.138,294.053 177.478,295.578 196.523,298.581 L196.523,477.133 Z M404.47,378.262 L394.55,369.631 C381.348,358.146 367.187,347.439 352.39,337.751 L352.39,255.878 C352.39,250.356 347.912,245.878 342.39,245.878 C336.868,245.878 332.39,250.356 332.39,255.878 L332.39,325.499 C273.472,291.79 206.871,274.054 138.658,274.054 L133.295,274.054 L133.295,137.165 L138.658,137.165 C206.873,137.165 273.473,119.428 332.39,85.719 L332.39,165.466 C332.39,170.989 336.868,175.466 342.39,175.466 C347.912,175.466 352.39,170.989 352.39,165.466 L352.39,73.467 C367.186,63.78 381.348,53.073 394.55,41.586 L404.47,32.956 L404.47,378.262 Z M442.099,236.557 L424.47,236.557 L424.47,174.661 L442.099,174.661 C459.145,174.661 473.013,188.529 473.013,205.643 C473.013,222.689 459.145,236.557 442.099,236.557 Z" id="Shape" fill-rule="nonzero"></path>
            <path d="M351.62,207.03 C350.008,203.163 346.055,200.643 341.858,200.87 C337.689,201.096 334.048,203.966 332.826,207.95 C331.601,211.942 333.086,216.403 336.436,218.884 C339.698,221.3 344.216,221.487 347.666,219.346 C351.767,216.801 353.476,211.488 351.62,207.03 Z" id="Path"></path>
        </g>
    </g>
</svg>