<?xml version="1.0" encoding="UTF-8"?>
<svg width="304px" height="93px" viewBox="0 0 304 93" version="1.1" xmlns="http://www.w3.org/2000/svg" xmlns:xlink="http://www.w3.org/1999/xlink">
    <!-- Generator: Sketch 52.6 (67491) - http://www.bohemiancoding.com/sketch -->
    <title>getaway-logo-colored</title>
    <desc>Created with Sketch.</desc>
    <g id="Page-1" stroke="none" stroke-width="1" fill="none" fill-rule="evenodd">
        <g id="getaway-logo-colored">
            <g id="paper-plane" transform="translate(0.396433, 0.163099)" fill="#5A5EBA">
                <path d="M87.5613021,0.778415556 C87.0293766,0.142217413 86.1619022,-0.102958243 85.3756539,0.16068236 L9.03326363,25.6856021 C8.33089772,25.9200907 7.81396143,26.5212372 7.68732088,27.2508021 C7.56068033,27.980367 7.84478192,28.7205605 8.42703385,29.1780378 L27.9621272,44.5281901 L27.9621272,58.9408143 C27.9616209,59.7100665 28.3997885,60.4122764 29.09098,60.7499204 C29.7821715,61.0875644 30.60539,61.001536 31.211841,60.5282851 L39.810641,53.8356003 L52.0652253,63.4651061 C52.5307412,63.8305996 53.133445,63.9728607 53.7132621,63.8541057 C54.2930792,63.7353506 54.7913249,63.3675989 55.0756681,62.8485232 L87.7833179,3.03078352 C88.1779916,2.30546181 88.0899942,1.41272113 87.5613021,0.778415556 Z M74.6165131,8.00485865 L30.0120351,41.0184992 L13.8520427,28.3198833 L74.6165131,8.00485865 Z M31.9883212,54.8237434 L31.9883212,47.6916282 L36.5482735,51.2749409 L31.9883212,54.8237434 Z M52.6852592,58.8326823 L33.2939584,43.5975641 L79.8620688,9.12989229 L52.6852592,58.8326823 Z" id="Shape" fill-rule="nonzero"></path>
                <path d="M4.10060079,83.7847321 C3.04157862,83.4466999 1.90892647,84.0305306 1.56985027,85.089219 C1.05679811,86.6927945 0.575955514,88.4010511 0.143427242,90.1668248 C-0.121499477,91.2468618 0.539277951,92.3371703 1.61931493,92.602097 C2.69935192,92.8670237 3.78966043,92.2062463 4.05458714,91.1262093 C4.46640928,89.4501622 4.92079403,87.8316323 5.40508765,86.3154826 C5.56806338,85.806903 5.52214924,85.2543933 5.27746172,84.7796909 C5.0327742,84.3049885 4.60939192,83.9470465 4.10060079,83.7847321 Z" id="Path"></path>
                <path d="M24.0751245,64.6419051 C21.5306924,63.8942655 18.8075053,64.0354558 16.3540347,65.0422238 C16.9763954,62.327208 18.1438257,59.7669234 19.7855023,57.516692 C20.4440242,56.6421214 20.2829226,55.4016206 19.422855,54.7242666 C18.5627874,54.0469125 17.3190814,54.1810443 16.6232145,55.0262034 C16.3931463,55.3183901 12.0920207,60.861884 12.0299023,67.6040335 C8.95658506,70.2514271 6.47582133,73.5169102 4.7493932,77.1875256 C4.24812897,78.1802067 4.64650102,79.3912886 5.63918208,79.8925528 C6.63186313,80.393817 7.84294506,79.995445 8.34420928,79.0027639 C9.50129598,76.6177071 10.9925775,74.4098358 12.7730227,72.4458194 C12.8627493,72.7149992 12.9612952,72.9834122 13.0686604,73.2510582 C14.5785784,77.4700945 18.7407061,80.1429815 23.2054666,79.7608388 C26.8400693,79.338195 29.6729053,76.4120058 29.9775249,72.7656142 C30.4468641,69.200707 28.0196443,65.8578156 24.0751245,64.6419051 Z M25.9858411,72.2410587 C25.9026093,74.0613216 24.5135593,75.5535887 22.7039178,75.7668543 C20.055864,75.9227523 17.634864,74.2758488 16.8072691,71.7556147 C16.532096,71.0687429 16.3323001,70.3540288 16.2113924,69.6240326 C18.1757246,68.316276 20.6021809,67.9020438 22.8891228,68.4840445 C24.9206252,69.1155818 26.1940529,70.6604899 25.9858411,72.2410587 Z" id="Shape" fill-rule="nonzero"></path>
            </g>
            <g id="Get" transform="translate(89.036428, 17.100599)" fill="#5A5EBA" font-family="AvenirNext-Regular, Avenir Next" font-size="50" font-weight="normal">
                <text>
                    <tspan x="0.3600049" y="50.5625">Get</tspan>
                </text>
            </g>
            <g id="away" transform="translate(174.036428, 17.100599)" fill="#6E73DA" font-family="AvenirNext-Bold, Avenir Next" font-size="50" font-weight="bold">
                <text>
                    <tspan x="0.93693" y="50.5625">away</tspan>
                </text>
            </g>
        </g>
    </g>
</svg>